<svg width="338" height="56" viewBox="0 0 338 56" fill="none" xmlns="http://www.w3.org/2000/svg">
<path d="M257.656 54.1983C253.667 54.1983 250.158 53.4052 247.13 51.8191C244.102 50.1849 241.746 47.9018 240.064 44.9698C238.43 42.0379 237.613 38.6253 237.613 34.732C237.613 30.8387 238.43 27.4261 240.064 24.4942C241.698 21.5622 244.006 19.3032 246.986 17.717C250.014 16.0828 253.523 15.2657 257.512 15.2657C261.453 15.2657 264.914 16.1069 267.894 17.7891C270.922 19.4233 273.278 21.8266 274.96 24.9989C276.642 28.1231 277.483 31.8481 277.483 36.174V38.5532H250.23C250.663 40.62 251.528 42.1821 252.826 43.2395C254.123 44.2969 255.734 44.8256 257.656 44.8256C260.732 44.8256 262.919 43.7442 264.217 41.5813H276.618C275.945 44.2248 274.672 46.5079 272.797 48.4305C270.971 50.305 268.735 51.747 266.092 52.7563C263.496 53.7176 260.684 54.1983 257.656 54.1983ZM264.722 30.6946C264.289 28.7239 263.424 27.2339 262.126 26.2245C260.877 25.1671 259.29 24.6384 257.368 24.6384C255.493 24.6384 253.931 25.1431 252.681 26.1524C251.48 27.1137 250.663 28.6278 250.23 30.6946H264.722Z" fill="white"/>
<path d="M237.247 43.6735V53.3346H203.721V45.2597L215.546 30.9844L220.016 25.7213C218.382 25.7694 215.954 25.7934 212.734 25.7934H203.721V16.1323H236.671V24.2072L224.846 38.4825L220.376 43.7456C222.011 43.6976 224.438 43.6735 227.658 43.6735H237.247Z" fill="white"/>
<path d="M200.136 12.7438H187.591V2.3618H200.136V12.7438ZM200.496 53.3347H187.23V16.1324H200.496V53.3347Z" fill="white"/>
<path d="M182.928 53.3334H169.662V2H182.928V53.3334Z" fill="white"/>
<path d="M164.999 12.7438H152.454V2.3618H164.999V12.7438ZM165.36 53.3347H152.093V16.1324H165.36V53.3347Z" fill="white"/>
<path d="M149.233 25.7942H142.24V40.3578C142.24 41.3672 142.384 42.1122 142.672 42.5929C143.009 43.0254 143.466 43.3138 144.042 43.458C144.619 43.6022 145.436 43.6743 146.494 43.6743H149.233V53.3354C147.215 53.5757 145.34 53.6959 143.61 53.6959C140.101 53.6959 137.265 53.2873 135.102 52.4702C132.987 51.6531 131.425 50.4034 130.416 48.7211C129.454 46.9908 128.974 44.7318 128.974 41.944V25.7942H123.71V16.1331H128.974V4.88594H142.24V16.1331H149.233V25.7942Z" fill="white"/>
<path d="M105.311 54.4867C101.178 54.4867 97.7651 54.0541 95.0734 53.189C92.4298 52.3238 90.411 50.9539 89.0171 49.0794C87.6232 47.1568 86.8061 44.6334 86.5658 41.5092H99.3993C99.5916 43.1914 100.144 44.369 101.058 45.0419C102.019 45.7149 103.533 46.0513 105.6 46.0513C107.474 46.0513 108.82 45.811 109.637 45.3303C110.455 44.8497 110.863 44.1527 110.863 43.2395C110.863 42.6147 110.695 42.11 110.358 41.7255C110.022 41.2929 109.445 40.9324 108.628 40.644C107.859 40.3076 106.729 40.0432 105.239 39.8509L99.904 39.0579C91.3002 37.8082 86.9984 33.9389 86.9984 27.4502C86.9984 23.5089 88.5124 20.5048 91.5406 18.438C94.6168 16.3231 99.0629 15.2657 104.879 15.2657C116.415 15.2657 122.447 19.5675 122.976 28.1712H110.791C110.743 26.5369 110.19 25.3834 109.133 24.7105C108.123 24.0376 106.705 23.7011 104.879 23.7011C101.61 23.7011 99.9761 24.6384 99.9761 26.5129C99.9761 27.3781 100.337 28.027 101.058 28.4595C101.779 28.8921 102.956 29.2286 104.59 29.4689L110.935 30.3341C115.357 30.9589 118.65 32.2326 120.813 34.1552C122.976 36.0778 124.057 38.7454 124.057 42.158C124.057 44.8016 123.312 47.0366 121.822 48.8631C120.38 50.6896 118.241 52.0835 115.405 53.0448C112.617 54.0061 109.253 54.4867 105.311 54.4867Z" fill="white"/>
<path d="M65.8183 54.1983C61.7327 54.1983 58.1758 53.4052 55.1476 51.8191C52.1195 50.1849 49.7883 47.9018 48.154 44.9698C46.5679 42.0379 45.7748 38.6253 45.7748 34.732C45.7748 30.8387 46.5679 27.4261 48.154 24.4942C49.7883 21.5622 52.1195 19.3032 55.1476 17.717C58.1758 16.0828 61.7327 15.2657 65.8183 15.2657C69.9039 15.2657 73.4607 16.0828 76.4889 17.717C79.517 19.3032 81.8242 21.5622 83.4104 24.4942C85.0446 27.4261 85.8617 30.8387 85.8617 34.732C85.8617 38.6253 85.0446 42.0379 83.4104 44.9698C81.8242 47.9018 79.517 50.1849 76.4889 51.8191C73.4607 53.4052 69.9039 54.1983 65.8183 54.1983ZM65.8183 43.8163C67.9812 43.8163 69.6395 43.0713 70.7931 41.5813C71.9467 40.0912 72.5235 37.8082 72.5235 34.732C72.5235 31.6558 71.9467 29.3728 70.7931 27.8828C69.6395 26.3927 67.9812 25.6477 65.8183 25.6477C63.6553 25.6477 61.997 26.3927 60.8434 27.8828C59.6899 29.3728 59.1131 31.6558 59.1131 34.732C59.1131 37.8082 59.6899 40.0912 60.8434 41.5813C61.997 43.0713 63.6553 43.8163 65.8183 43.8163Z" fill="white"/>
<path d="M26.0811 2C30.1667 2 33.6755 2.74501 36.6075 4.23502C39.5876 5.67697 41.8467 7.74376 43.3848 10.4354C44.971 13.127 45.7641 16.2753 45.7641 19.8802C45.7641 23.485 44.971 26.6333 43.3848 29.3249C41.8467 32.0166 39.5876 34.1074 36.6075 35.5974C33.6755 37.0393 30.1667 37.7603 26.0811 37.7603H16.4198V53.3334H2V2H26.0811ZM24.9996 25.6479C26.9703 25.6479 28.5324 25.1673 29.686 24.206C30.8396 23.1966 31.4164 21.7547 31.4164 19.8802C31.4164 18.0056 30.8396 16.5877 29.686 15.6264C28.5324 14.617 26.9703 14.1124 24.9996 14.1124H16.4198V25.6479H24.9996Z" fill="white"/>
<path opacity="0.9" d="M294.088 2V54.5806L305.95 38.1738H335.6V2H294.088Z" fill="white"/>
</svg>
