<svg height="25" viewBox="0 0 205 21" xmlns="http://www.w3.org/2000/svg"
 xmlns:xlink="http://www.w3.org/1999/xlink"> <mask id="a" fill="#fff"> <path d="m0 .30395676h11.6573571v15.34702704h-11.6573571z" fill="#fff" fill-rule="evenodd"/> </mask> <g id="nav-logo" fill="#393b3d" fill-rule="evenodd"> <path
 d="m11.4722143 1.75563243-1.1104286 1.96972973s-1.33199999-.93318919-3.05271427-.93318919c-2.77542857 0-4.626 2.07394595-4.626 5.18486487 0 3.11091896 1.85057143 5.18486486 4.626 5.18486486 1.85014286 0 3.23785717-1.1403243 3.23785717-1.1403243l1.1104285 1.9697297s-1.75799996 1.6596757-4.53342853 1.6596757c-4.25614286 0-7.12414286-3.2151352-7.12414286-7.67394596 0-4.45881081 2.868-7.67308108 7.12414286-7.67308108 2.68285714 0 4.34828573 1.45167567 4.34828573 1.45167567"
 mask="url(#a)"/> <path
 d="m27.0661124 9.42900545h4.8677752l-2.3846484-6.2139219h-.0989385zm9.9338876 5.57099455h-2.9801203l-1.0929255-2.9997319h-6.8543686l-1.0924653 2.9997319h-2.9801203l5.7614431-15h3.4766536z"/> <path
 d="m54.2555029 2.46492717h-3.5189468v4.9280672h3.5189468c1.8572722 0 2.8348078-1.2858547 2.8348078-2.4640336 0-1.39308373-.9775356-2.4640336-2.8348078-2.4640336zm0-2.46492717c3.7140917 0 5.6691627 2.1432401 5.6691627 4.92896077 0 3.21418998-2.5414112 4.28513985-2.5414112 4.28513985v.1081226l3.6167456 5.67777678h-3.2260031l-3.2255503-5.14297203h-3.8118905v5.14297203h-2.7365561v-15z"/> <path
 d="m76.0664172 9.42900545h4.8676258l-2.3845753-6.2139219h-.0989354zm9.9335828 5.57099455h-2.9800288l-1.092892-2.9997319h-6.8536982l-1.092892 2.9997319h-2.980489l5.7617265-15h3.476547z"/> <path d="m95 0h2.9930356l3.9586604 11.7861611h.096608l3.95866-11.7861611h2.993036l-5.310268 15h-3.379464z"/> <path
 d="m121 0h10.807794v2.4650006h-8.106181v3.85678541h5.596774v2.464107h-5.596774v3.75044679h8.298387v2.4636602h-11z"/> <path d="m144 0h2.616244v12.5363398h7.383756v2.4636602h-10z"/> </g> </svg>